<svg xmlns="http://www.w3.org/2000/svg" viewBox="0 0 400 400" width="400" height="400">
  <!-- Gye Nyame - Supremacy of God -->
  <g id="gye-nyame" transform="translate(50, 50)">
    <circle cx="50" cy="50" r="40" fill="none" stroke="#8B4513" stroke-width="3"/>
    <path d="M30 50 Q50 30 70 50 Q50 70 30 50" fill="#D2691E"/>
    <circle cx="50" cy="40" r="8" fill="#8B4513"/>
    <path d="M42 55 L58 55 M50 48 L50 62" stroke="#8B4513" stroke-width="2"/>
  </g>
  
  <!-- Sankofa - Learning from the past -->
  <g id="sankofa" transform="translate(200, 50)">
    <circle cx="50" cy="50" r="40" fill="none" stroke="#CD853F" stroke-width="3"/>
    <path d="M30 50 Q50 20 70 50 Q50 35 45 50 Q50 65 55 50 Q50 80 30 50" fill="#DEB887" stroke="#CD853F" stroke-width="2"/>
    <circle cx="35" cy="45" r="3" fill="#8B4513"/>
  </g>
  
  <!-- Dwennimmen - Humility and strength -->
  <g id="dwennimmen" transform="translate(50, 200)">
    <rect x="10" y="10" width="80" height="80" fill="none" stroke="#A0522D" stroke-width="3" rx="5"/>
    <path d="M25 25 Q50 15 75 25 Q65 50 75 75 Q50 85 25 75 Q35 50 25 25" fill="#DEB887"/>
    <circle cx="35" cy="35" r="4" fill="#8B4513"/>
    <circle cx="65" cy="65" r="4" fill="#8B4513"/>
  </g>
  
  <!-- Akoma - Patience and tolerance -->
  <g id="akoma" transform="translate(200, 200)">
    <path d="M30 40 Q50 20 70 40 Q50 60 30 40" fill="#CD853F"/>
    <path d="M40 50 Q50 70 60 50" fill="#DEB887"/>
    <circle cx="50" cy="45" r="3" fill="#8B4513"/>
  </g>
  
  <!-- Decorative border pattern -->
  <g id="border-pattern">
    <rect x="5" y="5" width="390" height="390" fill="none" stroke="#8B4513" stroke-width="2" stroke-dasharray="10,5"/>
    <circle cx="20" cy="20" r="5" fill="#D2691E"/>
    <circle cx="380" cy="20" r="5" fill="#D2691E"/>
    <circle cx="20" cy="380" r="5" fill="#D2691E"/>
    <circle cx="380" cy="380" r="5" fill="#D2691E"/>
  </g>
</svg>